<mxfile host="app.diagrams.net" agent="Mozilla/5.0 (Windows NT 10.0; Win64; x64; rv:134.0) Gecko/20100101 Firefox/134.0" version="26.0.6">
  <diagram name="Page-1" id="yAJGOROFbNW6VHsQUNLc">
    <mxGraphModel dx="2074" dy="1134" grid="1" gridSize="10" guides="1" tooltips="1" connect="1" arrows="1" fold="1" page="1" pageScale="1" pageWidth="850" pageHeight="1100" math="0" shadow="0">
      <root>
        <mxCell id="0" />
        <mxCell id="1" parent="0" />
        <mxCell id="h8KxuYFzXVeLTOPsiiLg-2" value="" style="rounded=0;whiteSpace=wrap;html=1;" vertex="1" parent="1">
          <mxGeometry x="160" y="140" width="600" height="170" as="geometry" />
        </mxCell>
        <mxCell id="h8KxuYFzXVeLTOPsiiLg-3" value="&lt;div&gt;Desk&lt;/div&gt;" style="text;html=1;align=center;verticalAlign=middle;resizable=0;points=[];autosize=1;strokeColor=none;fillColor=none;" vertex="1" parent="1">
          <mxGeometry x="160" y="140" width="50" height="30" as="geometry" />
        </mxCell>
        <mxCell id="h8KxuYFzXVeLTOPsiiLg-4" value="" style="rounded=0;whiteSpace=wrap;html=1;" vertex="1" parent="1">
          <mxGeometry x="160" y="390" width="600" height="240" as="geometry" />
        </mxCell>
        <mxCell id="h8KxuYFzXVeLTOPsiiLg-5" value="Shelf" style="text;html=1;align=center;verticalAlign=middle;resizable=0;points=[];autosize=1;strokeColor=none;fillColor=none;" vertex="1" parent="1">
          <mxGeometry x="160" y="600" width="50" height="30" as="geometry" />
        </mxCell>
        <mxCell id="h8KxuYFzXVeLTOPsiiLg-41" style="edgeStyle=orthogonalEdgeStyle;rounded=0;orthogonalLoop=1;jettySize=auto;html=1;exitX=0;exitY=0.5;exitDx=0;exitDy=0;entryX=0;entryY=0.5;entryDx=0;entryDy=0;" edge="1" parent="1" source="h8KxuYFzXVeLTOPsiiLg-6" target="h8KxuYFzXVeLTOPsiiLg-11">
          <mxGeometry relative="1" as="geometry">
            <Array as="points">
              <mxPoint x="190" y="190" />
              <mxPoint x="190" y="570" />
            </Array>
          </mxGeometry>
        </mxCell>
        <mxCell id="h8KxuYFzXVeLTOPsiiLg-6" value="Monitor A" style="rounded=0;whiteSpace=wrap;html=1;" vertex="1" parent="1">
          <mxGeometry x="230" y="160" width="120" height="60" as="geometry" />
        </mxCell>
        <mxCell id="h8KxuYFzXVeLTOPsiiLg-40" style="edgeStyle=orthogonalEdgeStyle;rounded=0;orthogonalLoop=1;jettySize=auto;html=1;exitX=0;exitY=0.5;exitDx=0;exitDy=0;entryX=0;entryY=0.5;entryDx=0;entryDy=0;" edge="1" parent="1" source="h8KxuYFzXVeLTOPsiiLg-7" target="h8KxuYFzXVeLTOPsiiLg-10">
          <mxGeometry relative="1" as="geometry" />
        </mxCell>
        <mxCell id="h8KxuYFzXVeLTOPsiiLg-7" value="Monitor B" style="rounded=0;whiteSpace=wrap;html=1;" vertex="1" parent="1">
          <mxGeometry x="230" y="230" width="120" height="60" as="geometry" />
        </mxCell>
        <mxCell id="h8KxuYFzXVeLTOPsiiLg-38" style="edgeStyle=orthogonalEdgeStyle;rounded=0;orthogonalLoop=1;jettySize=auto;html=1;exitX=1;exitY=0.5;exitDx=0;exitDy=0;" edge="1" parent="1" source="h8KxuYFzXVeLTOPsiiLg-8" target="h8KxuYFzXVeLTOPsiiLg-13">
          <mxGeometry relative="1" as="geometry">
            <Array as="points">
              <mxPoint x="730" y="190" />
              <mxPoint x="730" y="570" />
            </Array>
          </mxGeometry>
        </mxCell>
        <mxCell id="h8KxuYFzXVeLTOPsiiLg-8" value="Keyboard &amp;amp; Mouse" style="rounded=0;whiteSpace=wrap;html=1;" vertex="1" parent="1">
          <mxGeometry x="570" y="160" width="120" height="60" as="geometry" />
        </mxCell>
        <mxCell id="h8KxuYFzXVeLTOPsiiLg-39" style="edgeStyle=orthogonalEdgeStyle;rounded=0;orthogonalLoop=1;jettySize=auto;html=1;exitX=1;exitY=0.5;exitDx=0;exitDy=0;entryX=1;entryY=0.5;entryDx=0;entryDy=0;" edge="1" parent="1" source="h8KxuYFzXVeLTOPsiiLg-9" target="h8KxuYFzXVeLTOPsiiLg-12">
          <mxGeometry relative="1" as="geometry">
            <Array as="points">
              <mxPoint x="710" y="260" />
              <mxPoint x="710" y="460" />
            </Array>
          </mxGeometry>
        </mxCell>
        <mxCell id="h8KxuYFzXVeLTOPsiiLg-9" value="Webcam &amp;amp; Headset" style="rounded=0;whiteSpace=wrap;html=1;" vertex="1" parent="1">
          <mxGeometry x="570" y="230" width="120" height="60" as="geometry" />
        </mxCell>
        <mxCell id="h8KxuYFzXVeLTOPsiiLg-30" style="edgeStyle=orthogonalEdgeStyle;rounded=0;orthogonalLoop=1;jettySize=auto;html=1;exitX=1;exitY=0.5;exitDx=0;exitDy=0;entryX=0;entryY=0.5;entryDx=0;entryDy=0;" edge="1" parent="1" source="h8KxuYFzXVeLTOPsiiLg-10" target="h8KxuYFzXVeLTOPsiiLg-23">
          <mxGeometry relative="1" as="geometry" />
        </mxCell>
        <mxCell id="h8KxuYFzXVeLTOPsiiLg-31" style="edgeStyle=orthogonalEdgeStyle;rounded=0;orthogonalLoop=1;jettySize=auto;html=1;exitX=1;exitY=0.5;exitDx=0;exitDy=0;entryX=0;entryY=0.5;entryDx=0;entryDy=0;" edge="1" parent="1" source="h8KxuYFzXVeLTOPsiiLg-10" target="h8KxuYFzXVeLTOPsiiLg-25">
          <mxGeometry relative="1" as="geometry" />
        </mxCell>
        <mxCell id="h8KxuYFzXVeLTOPsiiLg-10" value="KVM 1" style="rounded=0;whiteSpace=wrap;html=1;" vertex="1" parent="1">
          <mxGeometry x="230" y="430" width="120" height="60" as="geometry" />
        </mxCell>
        <mxCell id="h8KxuYFzXVeLTOPsiiLg-32" style="edgeStyle=orthogonalEdgeStyle;rounded=0;orthogonalLoop=1;jettySize=auto;html=1;exitX=1;exitY=0.5;exitDx=0;exitDy=0;entryX=0;entryY=0.5;entryDx=0;entryDy=0;" edge="1" parent="1" source="h8KxuYFzXVeLTOPsiiLg-11" target="h8KxuYFzXVeLTOPsiiLg-23">
          <mxGeometry relative="1" as="geometry" />
        </mxCell>
        <mxCell id="h8KxuYFzXVeLTOPsiiLg-33" style="edgeStyle=orthogonalEdgeStyle;rounded=0;orthogonalLoop=1;jettySize=auto;html=1;exitX=1;exitY=0.5;exitDx=0;exitDy=0;" edge="1" parent="1" source="h8KxuYFzXVeLTOPsiiLg-11" target="h8KxuYFzXVeLTOPsiiLg-25">
          <mxGeometry relative="1" as="geometry" />
        </mxCell>
        <mxCell id="h8KxuYFzXVeLTOPsiiLg-11" value="KVM 2" style="rounded=0;whiteSpace=wrap;html=1;" vertex="1" parent="1">
          <mxGeometry x="230" y="540" width="120" height="60" as="geometry" />
        </mxCell>
        <mxCell id="h8KxuYFzXVeLTOPsiiLg-34" style="edgeStyle=orthogonalEdgeStyle;rounded=0;orthogonalLoop=1;jettySize=auto;html=1;exitX=0;exitY=0.5;exitDx=0;exitDy=0;" edge="1" parent="1" source="h8KxuYFzXVeLTOPsiiLg-12" target="h8KxuYFzXVeLTOPsiiLg-23">
          <mxGeometry relative="1" as="geometry" />
        </mxCell>
        <mxCell id="h8KxuYFzXVeLTOPsiiLg-35" style="edgeStyle=orthogonalEdgeStyle;rounded=0;orthogonalLoop=1;jettySize=auto;html=1;exitX=0;exitY=0.5;exitDx=0;exitDy=0;entryX=1;entryY=0.5;entryDx=0;entryDy=0;" edge="1" parent="1" source="h8KxuYFzXVeLTOPsiiLg-12" target="h8KxuYFzXVeLTOPsiiLg-25">
          <mxGeometry relative="1" as="geometry" />
        </mxCell>
        <mxCell id="h8KxuYFzXVeLTOPsiiLg-12" value="&lt;div&gt;USB&lt;/div&gt;&lt;div&gt;Switcher 1&lt;br&gt;&lt;/div&gt;" style="rounded=0;whiteSpace=wrap;html=1;" vertex="1" parent="1">
          <mxGeometry x="570" y="430" width="120" height="60" as="geometry" />
        </mxCell>
        <mxCell id="h8KxuYFzXVeLTOPsiiLg-36" style="edgeStyle=orthogonalEdgeStyle;rounded=0;orthogonalLoop=1;jettySize=auto;html=1;exitX=0;exitY=0.5;exitDx=0;exitDy=0;entryX=1;entryY=0.5;entryDx=0;entryDy=0;" edge="1" parent="1" source="h8KxuYFzXVeLTOPsiiLg-13" target="h8KxuYFzXVeLTOPsiiLg-25">
          <mxGeometry relative="1" as="geometry" />
        </mxCell>
        <mxCell id="h8KxuYFzXVeLTOPsiiLg-37" style="edgeStyle=orthogonalEdgeStyle;rounded=0;orthogonalLoop=1;jettySize=auto;html=1;exitX=0;exitY=0.5;exitDx=0;exitDy=0;entryX=1;entryY=0.5;entryDx=0;entryDy=0;" edge="1" parent="1" source="h8KxuYFzXVeLTOPsiiLg-13" target="h8KxuYFzXVeLTOPsiiLg-23">
          <mxGeometry relative="1" as="geometry" />
        </mxCell>
        <mxCell id="h8KxuYFzXVeLTOPsiiLg-13" value="&lt;div&gt;USB&lt;/div&gt;&lt;div&gt;Switcher 2&lt;br&gt;&lt;/div&gt;" style="rounded=0;whiteSpace=wrap;html=1;" vertex="1" parent="1">
          <mxGeometry x="570" y="540" width="120" height="60" as="geometry" />
        </mxCell>
        <mxCell id="h8KxuYFzXVeLTOPsiiLg-23" value="&lt;div&gt;Desktop&lt;/div&gt;&lt;div&gt;PC&lt;br&gt;&lt;/div&gt;" style="whiteSpace=wrap;html=1;aspect=fixed;" vertex="1" parent="1">
          <mxGeometry x="420" y="420" width="80" height="80" as="geometry" />
        </mxCell>
        <mxCell id="h8KxuYFzXVeLTOPsiiLg-25" value="Laptop" style="whiteSpace=wrap;html=1;aspect=fixed;" vertex="1" parent="1">
          <mxGeometry x="420" y="530" width="80" height="80" as="geometry" />
        </mxCell>
        <mxCell id="h8KxuYFzXVeLTOPsiiLg-42" value="HDMI x 2" style="text;html=1;align=center;verticalAlign=middle;resizable=0;points=[];autosize=1;strokeColor=none;fillColor=none;" vertex="1" parent="1">
          <mxGeometry x="205" y="330" width="70" height="30" as="geometry" />
        </mxCell>
        <mxCell id="h8KxuYFzXVeLTOPsiiLg-43" value="USB x 2" style="text;html=1;align=center;verticalAlign=middle;resizable=0;points=[];autosize=1;strokeColor=none;fillColor=none;" vertex="1" parent="1">
          <mxGeometry x="640" y="330" width="70" height="30" as="geometry" />
        </mxCell>
      </root>
    </mxGraphModel>
  </diagram>
</mxfile>
